<?xml version="1.0" encoding="utf-8" standalone="yes"?>
<!DOCTYPE svg PUBLIC "-//W3C//DTD SVG 1.1//EN" "http://www.w3.org/Graphics/SVG/1.1/DTD/svg11.dtd">
<!-- Generator: Adobe Illustrator 16.0.0, SVG Export Plug-In . SVG Version: 6.00 Build 0)  --><svg xmlns="http://www.w3.org/2000/svg" xmlns:xlink="http://www.w3.org/1999/xlink" version="1.1" id="Layer_1" x="0px" y="0px" width="1400px" height="980px" viewBox="0 0 1400 980" enable-background="new 0 0 1400 980" xml:space="preserve" style="zoom: 1;"><g><g><g><rect y="0" fill="#f2f2f2" width="1400" height="980"></rect></g></g><g><g><g><path fill="#939598" d="M874.3,254.1c-177.9-66.6-334,0-334,0v41.2h334V254.1z"></path><path d="M874.3,297.7h-334c-1.3,0-2.4-1.1-2.4-2.4v-41.2c0-0.9,0.6-1.8,1.4-2.2c0.7-0.3,71-29.8,169.3-29.8 c57.7,0,113.7,10,166.5,29.8c0.9,0.3,1.5,1.2,1.5,2.2v41.2C876.7,296.6,875.7,297.7,874.3,297.7z M542.7,292.9H872v-37.2 c-51.7-19.2-106.7-28.9-163.3-28.9c-89.6,0-155.6,24.7-166,28.8V292.9z"></path></g><g><path fill="#939598" d="M540.4,735.3c177.9,66.6,334,0,334,0v-47.7h-334V735.3z"></path><path d="M706,767.3C706,767.3,706,767.3,706,767.3c-57.8,0-113.8-10-166.5-29.8c-0.9-0.3-1.5-1.2-1.5-2.2v-47.7 c0-1.3,1.1-2.4,2.4-2.4h334c1.3,0,2.4,1.1,2.4,2.4v47.7c0,0.9-0.6,1.8-1.4,2.2C874.6,737.8,804.3,767.3,706,767.3z M542.7,733.7 c51.7,19.2,106.7,28.9,163.3,28.9c89.6,0,155.6-24.7,166-28.8V690H542.7V733.7z"></path></g><g><rect x="540.4" y="295.3" fill="#FFE9A6" width="334" height="392.3"></rect><path d="M874.3,690h-334c-1.3,0-2.4-1.1-2.4-2.4V295.3c0-1.3,1.1-2.4,2.4-2.4h334c1.3,0,2.4,1.1,2.4,2.4v392.3 C876.7,688.9,875.7,690,874.3,690z M542.7,685.3H872V297.7H542.7V685.3z"></path></g></g><g><rect x="656.5" y="710.9" fill="#6D6E71" width="101.8" height="28.6"></rect><path d="M758.3,741.8H656.5c-1.3,0-2.4-1.1-2.4-2.4v-28.6c0-1.3,1.1-2.4,2.4-2.4h101.8c1.3,0,2.4,1.1,2.4,2.4v28.6 C760.6,740.8,759.6,741.8,758.3,741.8z M658.8,737.1h97.1v-23.9h-97.1V737.1z"></path></g><g><path d="M752.3,262.3h-90c-1.3,0-2.4-1.1-2.4-2.4s1.1-2.4,2.4-2.4h90c1.3,0,2.4,1.1,2.4,2.4S753.7,262.3,752.3,262.3z"></path></g><g><path fill="#6D6E71" d="M793.1,259.9c0,5.2-4.2,9.5-9.5,9.5c-5.2,0-9.5-4.2-9.5-9.5c0-5.2,4.2-9.5,9.5-9.5 C788.8,250.4,793.1,254.7,793.1,259.9z"></path><path d="M783.6,271.7c-6.5,0-11.8-5.3-11.8-11.8s5.3-11.8,11.8-11.8c6.5,0,11.8,5.3,11.8,11.8S790.1,271.7,783.6,271.7z M783.6,252.8c-3.9,0-7.1,3.2-7.1,7.1c0,3.9,3.2,7.1,7.1,7.1c3.9,0,7.1-3.2,7.1-7.1C790.7,256,787.5,252.8,783.6,252.8z"></path></g></g><g><path fill="#D5F2FF" d="M796.8,477.1c0-49.4-40-89.4-89.4-89.4c-49.4,0-89.4,40-89.4,89.4c0,31.3,16.1,58.8,40.5,74.8l7.9,17.9 h82.2l7.9-18C780.7,535.9,796.8,508.4,796.8,477.1z"></path><path d="M748.5,572.2h-82.2c-0.9,0-1.8-0.6-2.2-1.4l-7.6-17.3c-25.6-17.1-40.9-45.6-40.9-76.4c0-50.6,41.2-91.8,91.8-91.8 c50.6,0,91.8,41.2,91.8,91.8c0,30.8-15.3,59.2-40.9,76.4l-7.6,17.3C750.2,571.6,749.4,572.2,748.5,572.2z M667.8,567.5h79.1 l7.3-16.5c0.2-0.4,0.5-0.8,0.9-1c24.7-16.2,39.4-43.4,39.4-72.8c0-48-39.1-87.1-87.1-87.1c-48,0-87.1,39.1-87.1,87.1 c0,29.4,14.7,56.6,39.4,72.8c0.4,0.2,0.7,0.6,0.9,1L667.8,567.5z"></path></g><g><path d="M729.5,648.8h-44.4c-1.3,0-2.4-1.1-2.4-2.4s1.1-2.4,2.4-2.4h44.4c1.3,0,2.4,1.1,2.4,2.4S730.9,648.8,729.5,648.8z"></path></g><g><g><path fill="#FFA9A6" d="M654.3,619.7c0,7.2,5.8,13,13,13h80.1c7.2,0,13-5.8,13-13v-7.6h-106V619.7z"></path><path d="M747.4,635h-80.1c-8.4,0-15.3-6.9-15.3-15.3v-7.6c0-1.3,1.1-2.4,2.4-2.4h106c1.3,0,2.4,1.1,2.4,2.4v7.6 C762.7,628.1,755.9,635,747.4,635z M656.7,614.5v5.2c0,5.8,4.8,10.6,10.6,10.6h80.1c5.8,0,10.6-4.8,10.6-10.6v-5.2H656.7z"></path></g><g><path fill="#FFA9A6" d="M760.4,582.8c0-7.2-5.8-13-13-13h-80.1c-7.2,0-13,5.8-13,13v7.6h106V582.8z"></path><path d="M760.4,592.8h-106c-1.3,0-2.4-1.1-2.4-2.4v-7.6c0-8.5,6.9-15.3,15.3-15.3h80.1c8.4,0,15.3,6.9,15.3,15.3v7.6 C762.7,591.7,761.7,592.8,760.4,592.8z M656.7,588H758v-5.2c0-5.8-4.8-10.6-10.6-10.6h-80.1c-5.8,0-10.6,4.8-10.6,10.6V588z"></path></g><g><rect x="654.3" y="590.4" fill="#FFA9A6" width="106" height="21.7"></rect><path d="M760.4,614.5h-106c-1.3,0-2.4-1.1-2.4-2.4v-21.7c0-1.3,1.1-2.4,2.4-2.4h106c1.3,0,2.4,1.1,2.4,2.4v21.7 C762.7,613.4,761.7,614.5,760.4,614.5z M656.7,609.7H758v-17H656.7V609.7z"></path></g></g><g><path d="M638.3,479.5c-1.3,0-2.4-1.1-2.4-2.4c0-39.4,32-71.5,71.4-71.5c1.3,0,2.4,1.1,2.4,2.4s-1.1,2.4-2.4,2.4 c-36.8,0-66.7,29.9-66.7,66.7C640.6,478.5,639.6,479.5,638.3,479.5z"></path></g><g><path d="M707.4,368.3c-1.3,0-2.4-1.1-2.4-2.4v-45.9c0-1.3,1.1-2.4,2.4-2.4c1.3,0,2.4,1.1,2.4,2.4V366 C709.7,367.3,708.7,368.3,707.4,368.3z"></path></g><g><path d="M786.6,398.9c-0.6,0-1.2-0.2-1.7-0.7c-0.9-0.9-0.9-2.4,0-3.3l30.6-30.6c0.9-0.9,2.4-0.9,3.3,0c0.9,0.9,0.9,2.4,0,3.3 l-30.6,30.6C787.8,398.7,787.2,398.9,786.6,398.9z"></path></g><g><path d="M628.1,398.9c-0.6,0-1.2-0.2-1.7-0.7l-30.6-30.6c-0.9-0.9-0.9-2.4,0-3.3c0.9-0.9,2.4-0.9,3.3,0l30.6,30.6 c0.9,0.9,0.9,2.4,0,3.3C629.3,398.7,628.7,398.9,628.1,398.9z"></path></g><g><path d="M874.3,592.8h-44c-1.3,0-2.4-1.1-2.4-2.4s1.1-2.4,2.4-2.4h44c1.3,0,2.4,1.1,2.4,2.4S875.7,592.8,874.3,592.8z"></path></g><g><path d="M874.3,643.7h-72.5c-1.3,0-2.4-1.1-2.4-2.4s1.1-2.4,2.4-2.4h72.5c1.3,0,2.4,1.1,2.4,2.4S875.7,643.7,874.3,643.7z"></path></g><g><path d="M593.7,600.8h-53.4c-1.3,0-2.4-1.1-2.4-2.4s1.1-2.4,2.4-2.4h53.4c1.3,0,2.4,1.1,2.4,2.4S595,600.8,593.7,600.8z"></path></g><g><path d="M628.1,645.4h-87.7c-1.3,0-2.4-1.1-2.4-2.4s1.1-2.4,2.4-2.4h87.7c1.3,0,2.4,1.1,2.4,2.4S629.4,645.4,628.1,645.4z"></path></g><g><g><path d="M964.7,412.4c-0.6,0-1.2-0.2-1.7-0.7l-44.1-44.1c-0.9-0.9-0.9-2.4,0-3.3c0.9-0.9,2.4-0.9,3.3,0l42.4,42.4l42.4-42.4 c0.9-0.9,2.4-0.9,3.3,0c0.9,0.9,0.9,2.4,0,3.3l-44.1,44.1C965.9,412.2,965.3,412.4,964.7,412.4z"></path></g><g><path d="M964.7,486.3c-0.6,0-1.2-0.2-1.7-0.7l-44.1-44.1c-0.9-0.9-0.9-2.4,0-3.3c0.9-0.9,2.4-0.9,3.3,0l42.4,42.4l42.4-42.4 c0.9-0.9,2.4-0.9,3.3,0c0.9,0.9,0.9,2.4,0,3.3l-44.1,44.1C965.9,486.1,965.3,486.3,964.7,486.3z"></path></g><g><path d="M964.7,560.2c-0.6,0-1.2-0.2-1.7-0.7l-44.1-44.1c-0.9-0.9-0.9-2.4,0-3.3s2.4-0.9,3.3,0l42.4,42.4l42.4-42.4 c0.9-0.9,2.4-0.9,3.3,0s0.9,2.4,0,3.3l-44.1,44.1C965.9,560,965.3,560.2,964.7,560.2z"></path></g></g><g><path d="M751.5,151.4c-0.6,0-1.2-0.2-1.7-0.7l-42.4-42.4l-42.4,42.4c-0.9,0.9-2.4,0.9-3.3,0c-0.9-0.9-0.9-2.4,0-3.3l44.1-44.1 c0.9-0.9,2.4-0.9,3.3,0l44.1,44.1c0.9,0.9,0.9,2.4,0,3.3C752.7,151.1,752.1,151.4,751.5,151.4z"></path></g><g><g><path fill="#D5F2FF" d="M1264.4,217.5H1251c2-3.7,3.2-8,3.2-12.5c0-14.5-11.7-26.3-26.3-26.3h-20c-8.7-39-43.5-68.1-85.1-68.1 c-34.7,0-64.7,20.3-78.8,49.7h-20.9c-14.5,0-26.3,11.8-26.3,26.3c0,4.1,1,7.9,2.6,11.3h-9.7c-26.4,0-47.8,21.4-47.8,47.8v2.7 c0,26.4,21.4,47.8,47.8,47.8h103.4h103.7h67.5c21.7,0,39.3-17.6,39.3-39.3C1303.7,235.1,1286.1,217.5,1264.4,217.5z"></path><path d="M1264.4,298.5H989.8c-27.7,0-50.1-22.5-50.1-50.1v-2.7c0-27.7,22.5-50.1,50.1-50.1h6.2c-1-2.9-1.5-5.9-1.5-9 c0-15.8,12.8-28.6,28.6-28.6h19.4c15.1-30.2,46.4-49.7,80.3-49.7c40.9,0,77.2,28.5,87,68.1h18.1c15.8,0,28.6,12.8,28.6,28.6 c0,3.5-0.6,6.9-1.9,10.1h9.7c23,0,41.7,18.7,41.7,41.7S1287.4,298.5,1264.4,298.5z M989.8,200.3c-25,0-45.4,20.4-45.4,45.4v2.7 c0,25,20.4,45.4,45.4,45.4h274.6c20.4,0,37-16.6,37-37c0-20.4-16.6-37-37-37H1251c-0.8,0-1.6-0.4-2-1.2c-0.4-0.7-0.4-1.6,0-2.3 c1.9-3.5,2.9-7.4,2.9-11.4c0-13.2-10.7-23.9-23.9-23.9h-20c-1.1,0-2.1-0.8-2.3-1.8c-8.6-38.4-43.4-66.2-82.8-66.2 c-32.5,0-62.6,19-76.6,48.3c-0.4,0.8-1.2,1.3-2.1,1.3h-20.9c-13.2,0-23.9,10.7-23.9,23.9c0,3.6,0.8,7,2.4,10.3 c0.4,0.7,0.3,1.6-0.1,2.3c-0.4,0.7-1.2,1.1-2,1.1H989.8z"></path></g><g><path d="M1187.2,181.3c-1.1,0-2-0.7-2.3-1.8c-0.1-0.3-9.4-34.6-45.6-44.9c-1.3-0.4-2-1.7-1.6-2.9s1.6-2,2.9-1.6 c38.9,11,48.5,46.8,48.9,48.3c0.3,1.3-0.4,2.6-1.7,2.9C1187.6,181.3,1187.4,181.3,1187.2,181.3z"></path></g><g><path d="M1258.8,279.7h-38.3c-1.3,0-2.4-1.1-2.4-2.4s1.1-2.4,2.4-2.4h38.3c1.3,0,2.4,1.1,2.4,2.4S1260.1,279.7,1258.8,279.7z"></path></g><g><path d="M1192.6,279.7h-29c-1.3,0-2.4-1.1-2.4-2.4s1.1-2.4,2.4-2.4h29c1.3,0,2.4,1.1,2.4,2.4S1193.9,279.7,1192.6,279.7z"></path></g></g><g><polygon fill="#FFE9A6" points="173.9,149.8 188.9,180.1 222.4,185 198.1,208.6 203.8,242 173.9,226.2 143.9,242 149.6,208.6 125.4,185 158.9,180.1"></polygon><path d="M143.9,244.4c-0.5,0-1-0.2-1.4-0.5c-0.7-0.5-1.1-1.4-0.9-2.3l5.5-32.1l-23.3-22.8c-0.6-0.6-0.9-1.6-0.6-2.4 c0.3-0.9,1-1.5,1.9-1.6l32.3-4.7l14.4-29.2c0.4-0.8,1.2-1.3,2.1-1.3l0,0c0.9,0,1.7,0.5,2.1,1.3l14.4,29.2l32.3,4.7 c0.9,0.1,1.6,0.8,1.9,1.6c0.3,0.9,0,1.8-0.6,2.4l-23.3,22.8l5.5,32.1c0.2,0.9-0.2,1.8-0.9,2.3c-0.7,0.5-1.7,0.6-2.5,0.2 l-28.9-15.2L145,244.1C144.7,244.3,144.3,244.4,143.9,244.4z M130.5,186.6l20.8,20.3c0.6,0.5,0.8,1.3,0.7,2.1l-4.9,28.6l25.7-13.5 c0.7-0.4,1.5-0.4,2.2,0l25.7,13.5l-4.9-28.6c-0.1-0.8,0.1-1.6,0.7-2.1l20.8-20.3l-28.8-4.2c-0.8-0.1-1.4-0.6-1.8-1.3l-12.9-26.1 L161,181.2c-0.3,0.7-1,1.2-1.8,1.3L130.5,186.6z"></path></g><g><rect x="244.3" y="144.4" fill="#FFA9A6" width="217.1" height="18.8"></rect><path d="M461.4,165.5H244.3c-1.3,0-2.4-1.1-2.4-2.4v-18.8c0-1.3,1.1-2.4,2.4-2.4h217.1c1.3,0,2.4,1.1,2.4,2.4v18.8 C463.8,164.4,462.7,165.5,461.4,165.5z M246.7,160.7h212.4v-14H246.7V160.7z"></path></g><g><path d="M461.4,192.8H244.3c-1.3,0-2.4-1.1-2.4-2.4s1.1-2.4,2.4-2.4h217.1c1.3,0,2.4,1.1,2.4,2.4S462.7,192.8,461.4,192.8z"></path></g><g><path d="M409.8,223.8H244.3c-1.3,0-2.4-1.1-2.4-2.4s1.1-2.4,2.4-2.4h165.4c1.3,0,2.4,1.1,2.4,2.4S411.1,223.8,409.8,223.8z"></path></g><g><path d="M409.8,254.7H244.3c-1.3,0-2.4-1.1-2.4-2.4s1.1-2.4,2.4-2.4h165.4c1.3,0,2.4,1.1,2.4,2.4S411.1,254.7,409.8,254.7z"></path></g><g><path d="M458.1,349.6c-0.5,0-1.1-0.2-1.5-0.5l-70.8-57.3H126.3c-20.1,0-36.5-16.4-36.5-36.5V145.8c0-20.1,16.4-36.5,36.5-36.5 h338.5c20.1,0,36.5,16.4,36.5,36.5v109.5c0,20.1-16.4,36.5-36.5,36.5h-4.3v55.4c0,0.9-0.5,1.7-1.3,2.1 C458.8,349.5,458.5,349.6,458.1,349.6z M126.3,114c-17.5,0-31.8,14.3-31.8,31.8v109.5c0,17.5,14.3,31.8,31.8,31.8h260.4 c0.5,0,1.1,0.2,1.5,0.5l67.6,54.7v-52.9c0-1.3,1.1-2.4,2.4-2.4h6.6c17.5,0,31.8-14.3,31.8-31.8V145.8c0-17.5-14.3-31.8-31.8-31.8 H126.3z"></path></g><g><path d="M775.3,592.8h-121c-1.3,0-2.4-1.1-2.4-2.4s1.1-2.4,2.4-2.4h121c1.3,0,2.4,1.1,2.4,2.4S776.6,592.8,775.3,592.8z"></path></g><g><path d="M775.3,614.5h-121c-1.3,0-2.4-1.1-2.4-2.4s1.1-2.4,2.4-2.4h121c1.3,0,2.4,1.1,2.4,2.4S776.6,614.5,775.3,614.5z"></path></g><g><g><path fill="#DB918E" d="M175.9,559.7c-23.4,16.9-42.3,30.8-43.8,32.7c-0.1,0.1-0.1,0.2-0.2,0.3l44,35.9V559.7z"></path><path d="M175.9,630.9c-0.5,0-1.1-0.2-1.5-0.5l-44-35.9c-0.5-0.4-0.8-1-0.9-1.6c-0.1-0.6,0.1-1.3,0.5-1.7c0.8-1,2.3-3,44.4-33.4 c0.7-0.5,1.7-0.6,2.5-0.2c0.8,0.4,1.3,1.2,1.3,2.1v68.8c0,0.9-0.5,1.7-1.3,2.1C176.6,630.9,176.2,630.9,175.9,630.9z M135.5,592.6l38,31v-59.2C148.2,582.7,138.8,589.9,135.5,592.6z"></path></g><g><path fill="#DB918E" d="M468.8,592.7c-0.1-0.1-0.1-0.2-0.2-0.3c-1.5-1.9-20.3-15.8-43.8-32.7v68.8L468.8,592.7z"></path><path d="M424.9,630.9c-0.3,0-0.7-0.1-1-0.2c-0.8-0.4-1.3-1.2-1.3-2.1v-68.8c0-0.9,0.5-1.7,1.3-2.1c0.8-0.4,1.7-0.3,2.5,0.2 c42.1,30.4,43.6,32.3,44.2,33.1c0.8,1,0.8,2.7-0.2,3.6l-43.9,35.9C425.9,630.8,425.4,630.9,424.9,630.9z M427.2,564.4v59.2l38-31 C461.8,589.7,452.3,582.5,427.2,564.4z"></path></g><g><path fill="#FFA9A6" d="M338.4,727.3l-13.6-9.9c-1.6-1.1-3.3-2.2-5.1-3c-11.6-5.7-27-5.7-38.6,0c-1.8,0.9-3.5,1.9-5.1,3 l-13.6,9.9l-126.7,91.8c6.5,6.2,15.3,10,25,10h279.3c9.7,0,18.4-3.8,25-10L338.4,727.3z"></path><path d="M440.1,831.4H160.7c-9.9,0-19.4-3.8-26.6-10.6c-0.5-0.5-0.8-1.2-0.7-1.9c0-0.7,0.4-1.3,1-1.8l140.3-101.6 c1.6-1.2,3.4-2.3,5.4-3.2c12-5.9,28.6-5.9,40.7,0c2,1,3.8,2,5.4,3.2l140.3,101.6c0.6,0.4,0.9,1.1,1,1.8c0,0.7-0.2,1.4-0.7,1.9 C459.4,827.6,450,831.4,440.1,831.4z M139.5,819.3c6,4.8,13.4,7.4,21.2,7.4h279.3c7.7,0,15.2-2.6,21.2-7.4l-137.9-99.9 c-1.4-1-3-2-4.7-2.8c-10.7-5.2-25.8-5.3-36.5,0c-1.7,0.9-3.3,1.8-4.7,2.8L139.5,819.3z"></path></g><g><path fill="#FFA9A6" d="M175.9,628.6l-44-35.9c-3.4,4.4-5.9,9.7-7,15.4c-0.4,2.2-0.7,4.5-0.7,6.9v177.6 c0,10.4,4.4,19.8,11.5,26.5l126.7-91.8l13.6-9.9c1.6-1.1,3.3-2.2,5.1-3L175.9,628.6z"></path><path d="M135.7,821.5c-0.6,0-1.2-0.2-1.6-0.6c-7.9-7.4-12.2-17.4-12.2-28.2V615c0-2.4,0.2-4.9,0.7-7.3c1.1-5.9,3.7-11.6,7.4-16.4 c0.4-0.5,1-0.8,1.6-0.9c0.6-0.1,1.3,0.1,1.8,0.5l149.1,121.8c0.6,0.5,0.9,1.3,0.9,2.1c-0.1,0.8-0.6,1.5-1.3,1.9 c-1.7,0.9-3.3,1.8-4.7,2.8L137.1,821C136.7,821.3,136.2,821.5,135.7,821.5z M132.4,596.1c-2.5,3.8-4.3,8-5.1,12.4 c-0.4,2.2-0.6,4.4-0.6,6.5v177.6c0,8.8,3.3,17,9.3,23.4l138.6-100.4c0.7-0.5,1.5-1,2.3-1.5L132.4,596.1z"></path></g><g><path fill="#FFA9A6" d="M475.8,608.1c-1.1-5.7-3.6-11-7-15.4l-43.9,35.9l-105.2,85.9c1.8,0.9,3.5,1.9,5.1,3l13.6,9.9L465,819.1 c7-6.6,11.5-16,11.5-26.5V615C476.5,612.6,476.3,610.3,475.8,608.1z"></path><path d="M465,821.5c-0.5,0-1-0.1-1.4-0.4L323.4,719.4c-1.4-1-3-2-4.7-2.8c-0.7-0.4-1.2-1-1.3-1.9c-0.1-0.8,0.2-1.6,0.9-2.1 l149.1-121.8c0.5-0.4,1.1-0.6,1.8-0.5c0.6,0.1,1.2,0.4,1.6,0.9c3.7,4.8,6.3,10.5,7.5,16.4c0.5,2.5,0.7,4.9,0.7,7.3v177.6 c0,10.8-4.3,20.8-12.2,28.2C466.2,821.2,465.6,821.5,465,821.5z M323.9,714.1c0.8,0.5,1.5,1,2.3,1.5L464.8,816 c6-6.4,9.3-14.6,9.3-23.4V615c0-2.1-0.2-4.3-0.6-6.4c-0.9-4.5-2.6-8.6-5.1-12.4L323.9,714.1z"></path></g><g><path fill="#DDDEDE" d="M175.9,404.1v-13.9c0-17-13.7-30.7-30.7-30.7c-17,0-30.7,13.7-30.7,30.7v49.9h61.4V404.1z"></path><path d="M175.9,442.5h-61.4c-1.3,0-2.4-1.1-2.4-2.4v-49.9c0-18.2,14.8-33.1,33.1-33.1s33.1,14.8,33.1,33.1v49.9 C178.3,441.4,177.2,442.5,175.9,442.5z M116.9,437.8h56.7v-47.6c0-15.6-12.7-28.3-28.3-28.3c-15.6,0-28.3,12.7-28.3,28.3V437.8z"></path></g><g><path fill="#F1F2F2" d="M394.2,359.5h-249c16.9,0,30.7,13.7,30.7,30.7v13.9v36v105.4v83l105.2,85.9c11.6-5.7,27-5.7,38.6,0 l105.2-85.9v-83V404.1v-13.9C424.9,373.3,411.1,359.5,394.2,359.5z"></path><path d="M319.7,716.8c-0.4,0-0.7-0.1-1-0.2c-10.7-5.2-25.8-5.3-36.5,0c-0.8,0.4-1.8,0.3-2.5-0.3l-105.2-85.9 c-0.5-0.5-0.9-1.1-0.9-1.8V390.2c0-15.6-12.7-28.3-28.3-28.3c-1.3,0-2.4-1.1-2.4-2.4s1.1-2.4,2.4-2.4h249 c18.2,0,33.1,14.8,33.1,33.1v238.4c0,0.7-0.3,1.4-0.9,1.8l-105.2,85.9C320.8,716.6,320.2,716.8,319.7,716.8z M178.3,627.4 l103.2,84.2c11.4-5,26.5-5,37.9,0l103.2-84.2V390.2c0-15.6-12.7-28.3-28.3-28.3h-232c9.6,5.8,16,16.3,16,28.3V627.4z"></path></g><g><g><rect x="209.6" y="399.8" fill="#D5F2FF" width="111.4" height="58.7"></rect><path d="M320.9,460.9H209.6c-1.3,0-2.4-1.1-2.4-2.4v-58.7c0-1.3,1.1-2.4,2.4-2.4h111.4c1.3,0,2.4,1.1,2.4,2.4v58.7 C323.3,459.9,322.2,460.9,320.9,460.9z M211.9,456.2h106.6v-54H211.9V456.2z"></path></g><g><rect x="338.3" y="399.8" fill="#939598" width="54.3" height="21.1"></rect><path d="M392.6,423.3h-54.3c-1.3,0-2.4-1.1-2.4-2.4v-21.1c0-1.3,1.1-2.4,2.4-2.4h54.3c1.3,0,2.4,1.1,2.4,2.4V421 C395,422.3,393.9,423.3,392.6,423.3z M340.7,418.6h49.6v-16.4h-49.6V418.6z"></path></g><g><rect x="338.3" y="437.4" fill="#939598" width="54.3" height="21.1"></rect><path d="M392.6,460.9h-54.3c-1.3,0-2.4-1.1-2.4-2.4v-21.1c0-1.3,1.1-2.4,2.4-2.4h54.3c1.3,0,2.4,1.1,2.4,2.4v21.1 C395,459.9,393.9,460.9,392.6,460.9z M340.7,456.2h49.6v-16.4h-49.6V456.2z"></path></g><g><path d="M346,485.5H209.6c-1.3,0-2.4-1.1-2.4-2.4s1.1-2.4,2.4-2.4H346c1.3,0,2.4,1.1,2.4,2.4S347.3,485.5,346,485.5z"></path></g><g><path d="M392.6,508.7H209.6c-1.3,0-2.4-1.1-2.4-2.4s1.1-2.4,2.4-2.4h183.1c1.3,0,2.4,1.1,2.4,2.4S393.9,508.7,392.6,508.7z"></path></g><g><path d="M392.6,531.4H209.6c-1.3,0-2.4-1.1-2.4-2.4c0-1.3,1.1-2.4,2.4-2.4h183.1c1.3,0,2.4,1.1,2.4,2.4 C395,530.4,393.9,531.4,392.6,531.4z"></path></g><g><path d="M392.6,554.2H209.6c-1.3,0-2.4-1.1-2.4-2.4s1.1-2.4,2.4-2.4h183.1c1.3,0,2.4,1.1,2.4,2.4S393.9,554.2,392.6,554.2z"></path></g><g><path d="M262.9,576.9h-53.4c-1.3,0-2.4-1.1-2.4-2.4s1.1-2.4,2.4-2.4h53.4c1.3,0,2.4,1.1,2.4,2.4S264.2,576.9,262.9,576.9z"></path></g><g><path d="M360.8,576.9h-72.8c-1.3,0-2.4-1.1-2.4-2.4s1.1-2.4,2.4-2.4h72.8c1.3,0,2.4,1.1,2.4,2.4S362.1,576.9,360.8,576.9z"></path></g><g><path d="M392.6,599.7H209.6c-1.3,0-2.4-1.1-2.4-2.4s1.1-2.4,2.4-2.4h183.1c1.3,0,2.4,1.1,2.4,2.4S393.9,599.7,392.6,599.7z"></path></g><g><path d="M259.7,622.4h-50.1c-1.3,0-2.4-1.1-2.4-2.4s1.1-2.4,2.4-2.4h50.1c1.3,0,2.4,1.1,2.4,2.4S261,622.4,259.7,622.4z"></path></g></g><g><path d="M319.7,783.6h-85.1c-1.3,0-2.4-1.1-2.4-2.4s1.1-2.4,2.4-2.4h85.1c1.3,0,2.4,1.1,2.4,2.4S321,783.6,319.7,783.6z"></path></g><g><path d="M320.9,805.7H202.7c-1.3,0-2.4-1.1-2.4-2.4s1.1-2.4,2.4-2.4h118.3c1.3,0,2.4,1.1,2.4,2.4S322.2,805.7,320.9,805.7z"></path></g></g><g><g><path fill="#F1F2F2" d="M1312.8,803.8c0,26.7-21.6,48.3-48.3,48.3H990.3c-26.7,0-48.3-21.6-48.3-48.3V665.9 c0-26.7,21.6-48.3,48.3-48.3h274.3c26.7,0,48.3,21.6,48.3,48.3V803.8z"></path><path d="M1264.5,854.5H990.3c-27.9,0-50.6-22.7-50.6-50.6V665.9c0-27.9,22.7-50.6,50.6-50.6h274.3c27.9,0,50.6,22.7,50.6,50.6 v137.9C1315.2,831.8,1292.5,854.5,1264.5,854.5z M990.3,620c-25.3,0-45.9,20.6-45.9,45.9v137.9c0,25.3,20.6,45.9,45.9,45.9h274.3 c25.3,0,45.9-20.6,45.9-45.9V665.9c0-25.3-20.6-45.9-45.9-45.9H990.3z"></path></g><g><g><path fill="#FFE9A6" d="M1158.8,767l44.1-11.6c0,0,7.4-10.6,7.2-21.7c-0.2-11.1-8-21.4-8-21.4l-44.5-10"></path><path d="M1158.8,769.4c-1,0-2-0.7-2.3-1.8c-0.3-1.3,0.4-2.6,1.7-2.9l43.2-11.4c1.5-2.5,6.4-11,6.3-19.6c-0.2-8.7-5.4-17-7-19.3 l-43.6-9.8c-1.3-0.3-2.1-1.5-1.8-2.8c0.3-1.3,1.5-2.1,2.8-1.8l44.5,10c0.5,0.1,1,0.4,1.4,0.9s8.2,11,8.4,22.8 c0.2,11.8-7.3,22.6-7.6,23.1c-0.3,0.5-0.8,0.8-1.3,0.9l-44.1,11.6C1159.2,769.4,1159,769.4,1158.8,769.4z"></path></g><g><path d="M1214.8,771.7c-1.3,0-2.3-1-2.4-2.3c0-1.3,1-2.4,2.3-2.4c8.9-0.2,17.2-3.8,23.4-10.2c6.2-6.4,9.5-14.9,9.3-23.8 c-0.2-8.9-3.8-17.2-10.2-23.4c-6.4-6.2-14.9-9.5-23.8-9.3c-1.2,0.1-2.4-1-2.4-2.3c0-1.3,1-2.4,2.3-2.4 c10.2-0.1,19.8,3.6,27.1,10.7c7.3,7.1,11.5,16.5,11.6,26.7c0.2,10.2-3.6,19.8-10.7,27.1C1234.5,767.4,1225.1,771.5,1214.8,771.7 C1214.9,771.7,1214.8,771.7,1214.8,771.7z"></path></g><g><path d="M1215.2,793.7c-1.3,0-2.3-1-2.4-2.3c0-1.3,1-2.4,2.3-2.4c14.8-0.3,28.6-6.3,38.8-16.9c10.3-10.6,15.8-24.6,15.5-39.4 c-0.3-14.8-6.3-28.6-16.9-38.8c-10.6-10.3-24.9-15.8-39.4-15.5c0,0,0,0,0,0c-1.3,0-2.3-1-2.4-2.3c0-1.3,1-2.4,2.3-2.4 c16.2-0.2,31.2,5.7,42.8,16.8c11.6,11.1,18.1,26.1,18.4,42.1c0.3,16-5.7,31.2-16.8,42.8C1246.3,786.9,1231.3,793.4,1215.2,793.7 C1215.3,793.7,1215.3,793.7,1215.2,793.7z"></path></g><g><path d="M1158.6,756.8c-1.1,0-2-0.7-2.3-1.8c-0.3-1.3,0.4-2.5,1.7-2.9l36.9-9.3c1.3-0.3,2.6,0.4,2.9,1.7 c0.3,1.3-0.4,2.5-1.7,2.9l-36.9,9.3C1158.9,756.8,1158.8,756.8,1158.6,756.8z"></path></g><g><path fill="#939598" d="M1156.8,658.7c-0.1-5.3-4.5-9.5-9.8-9.4c-5.3,0.1-9.5,4.5-9.4,9.8l0.1,2.9l2.7,144.5l0.1,4.5 c0.1,5.3,4.5,9.5,9.8,9.4c5.3-0.1,9.5-4.5,9.4-9.8L1156.8,658.7z"></path><path d="M1150,822.8c-6.5,0-11.9-5.3-12-11.8l-2.8-151.9c-0.1-6.6,5.1-12.1,11.8-12.2h0c6.7,0,12.1,5.3,12.2,11.8l2.8,151.9 c0.1,3.2-1.1,6.2-3.3,8.5c-2.2,2.3-5.2,3.6-8.4,3.7C1150.2,822.8,1150,822.8,1150,822.8z M1147.2,651.6 c-4.1,0.1-7.3,3.4-7.3,7.4l2.8,151.9c0.1,3.9,3.3,7.1,7.3,7.1v2.4l0.1-2.4c1.9,0,3.7-0.8,5.1-2.2c1.3-1.4,2.1-3.2,2-5.2 l-2.8-151.9C1154.3,654.8,1151.1,651.6,1147.2,651.6z"></path></g><g><path fill="#D5F2FF" d="M1011.1,706.4h-13.2v48.4h13.6l-0.6-44C1011,709.3,1011,707.9,1011.1,706.4z"></path><path d="M1011.5,757.1h-13.6c-1.3,0-2.4-1.1-2.4-2.4v-48.4c0-1.3,1.1-2.4,2.4-2.4h13.2c0.7,0,1.3,0.3,1.7,0.8 c0.4,0.5,0.7,1.1,0.6,1.8c-0.1,1.4-0.2,2.8-0.1,4.2l0.6,43.9c0,0.6-0.2,1.2-0.7,1.7C1012.8,756.9,1012.2,757.1,1011.5,757.1z M1000.3,752.4h8.9l-0.5-41.6c0-0.7,0-1.4,0-2.1h-8.3V752.4z"></path></g><g><path fill="#FFFFFF" d="M1137.6,662l-80.1,1.1c-24.6,0.3-44.5,19.4-46.4,43.4c-0.1,1.4-0.2,2.9-0.2,4.4l0.6,44l0.1,6.2 c0.3,26.1,21.7,46.9,47.8,46.6l80.9-1.1L1137.6,662z"></path><path d="M1058.8,809.9c-27,0-49.2-21.9-49.5-48.9l-0.7-50.1c0-1.6,0-3.1,0.2-4.6c2-25.7,23-45.3,48.8-45.6l80.1-1.1c0,0,0,0,0,0 c1.3,0,2.3,1,2.4,2.3l2.7,144.5c0,0.6-0.2,1.2-0.7,1.7c-0.4,0.5-1,0.7-1.7,0.7L1058.8,809.9z M1135.3,664.3l-77.7,1 c-23.3,0.3-42.3,18-44.1,41.2c-0.1,1.4-0.2,2.8-0.1,4.2l0.7,50.1c0.3,24.4,20.4,44.3,44.8,44.3l0.6,0l78.5-1L1135.3,664.3z"></path></g></g></g><g><path d="M584.2,874.6H80.8c-1.3,0-2.4-1.1-2.4-2.4V745.1c0-1.3,1.1-2.4,2.4-2.4h44.6c1.3,0,2.4,1.1,2.4,2.4s-1.1,2.4-2.4,2.4H83.1 v122.3h498.8V749.8c0-1.3,1.1-2.4,2.4-2.4c1.3,0,2.4,1.1,2.4,2.4v122.4C586.6,873.5,585.5,874.6,584.2,874.6z"></path></g><g><path d="M942.2,821.5H707.4c-1.3,0-2.4-1.1-2.4-2.4v-54.2c0-1.3,1.1-2.4,2.4-2.4c1.3,0,2.4,1.1,2.4,2.4v51.8h232.5 c1.3,0,2.4,1.1,2.4,2.4S943.5,821.5,942.2,821.5z"></path></g><g><path d="M817.2,239.2c-1.3,0-2.4-1.1-2.4-2.4V126.9c0-1.3,1.1-2.4,2.4-2.4h206.1c0.8,0,1.6,0.4,2,1.1l20.8,33.4 c0.7,1.1,0.4,2.6-0.8,3.3c-1.1,0.7-2.6,0.4-3.3-0.8l-20.1-32.3H819.5v107.5C819.5,238.1,818.5,239.2,817.2,239.2z"></path></g><g><path d="M612.8,236.1 c-1.3,0 -2.4,-1.1 -2.4,-2.4 v-61.9 H498.9 c-1.3,0 -2.4,-1.1 -2.4,-2.4 s1.1,-2.4 2.4,-2.4 h114 c1.3,0 2.4,1.1 2.4,2.4 v64.3 C615.2,235 614.1,236.1 612.8,236.1  z "></path></g><g><path d="M774.1,890.3h-127c-1.3,0-2.4-1.1-2.4-2.4V761.4c0-1.3,1.1-2.4,2.4-2.4s2.4,1.1,2.4,2.4v124.2h124.6 c1.3,0,2.4,1.1,2.4,2.4S775.4,890.3,774.1,890.3z"></path></g><g><path fill="#FFA9A6" d="M823.6,887.9c0,13.6-11.1,24.7-24.7,24.7s-24.7-11.1-24.7-24.7c0-13.6,11.1-24.7,24.7-24.7 S823.6,874.3,823.6,887.9z"></path><path d="M798.9,915c-14.9,0-27.1-12.1-27.1-27.1c0-14.9,12.1-27.1,27.1-27.1c14.9,0,27.1,12.1,27.1,27.1 C825.9,902.9,813.8,915,798.9,915z M798.9,865.6c-12.3,0-22.3,10-22.3,22.3c0,12.3,10,22.3,22.3,22.3s22.3-10,22.3-22.3 C821.2,875.6,811.2,865.6,798.9,865.6z"></path></g><g><path d="M1251.4,563.6h-164.4c-12.6,0-22.9-10.3-22.9-22.9V376.3c0-12.6,10.3-22.9,22.9-22.9h164.4c12.6,0,22.9,10.3,22.9,22.9 v164.4C1274.2,553.4,1264,563.6,1251.4,563.6z M1086.9,358.2c-10,0-18.1,8.1-18.1,18.1v164.4c0,10,8.1,18.1,18.1,18.1h164.4 c10,0,18.1-8.1,18.1-18.1V376.3c0-10-8.1-18.1-18.1-18.1H1086.9z"></path></g><g><path d="M707.4,226.9c-1.3,0-2.4-1.1-2.4-2.4V104.9c0-1.3,1.1-2.4,2.4-2.4c1.3,0,2.4,1.1,2.4,2.4v119.6 C709.7,225.8,708.7,226.9,707.4,226.9z"></path></g><g><path fill="#FFA9A6" d="M1143.5,395.2c0,5.3,2.4,10,6.2,13v10.1h-51.4v34.4h10.2c3.1-3.8,7.8-6.2,13-6.2c9.3,0,16.8,7.5,16.8,16.8 c0,9.3-7.5,16.8-16.8,16.8c-5.3,0-10-2.4-13-6.3h-10.2v62h42.1v-10.1c-3.8-3.1-6.2-7.8-6.2-13c0-9.3,7.5-16.8,16.8-16.8 s16.8,7.5,16.8,16.8c0,5.3-2.4,10-6.2,13v10.1h54.3v-55.3h10.1c3.1,3.8,7.8,6.2,13,6.2c9.3,0,16.8-7.5,16.8-16.8 c0-9.3-7.5-16.8-16.8-16.8c-5.3,0-10,2.4-13,6.2h-10.1v-41.1h-45v-10.1c3.8-3.1,6.3-7.8,6.3-13c0-9.3-7.5-16.8-16.8-16.8 S1143.5,385.9,1143.5,395.2z"></path><path d="M1215.8,538.2h-54.3c-1.3,0-2.4-1.1-2.4-2.4v-10.1c0-0.7,0.3-1.4,0.9-1.8c3.4-2.8,5.4-6.8,5.4-11.2 c0-7.9-6.5-14.4-14.4-14.4s-14.4,6.5-14.4,14.4c0,4.4,2,8.5,5.4,11.2c0.6,0.4,0.9,1.1,0.9,1.8v10.1c0,1.3-1.1,2.4-2.4,2.4h-42.1 c-1.3,0-2.4-1.1-2.4-2.4v-62c0-1.3,1.1-2.4,2.4-2.4h10.2c0.7,0,1.4,0.3,1.8,0.9c2.7,3.4,6.8,5.4,11.2,5.4 c7.9,0,14.4-6.5,14.4-14.4c0-7.9-6.5-14.4-14.4-14.4c-4.4,0-8.5,2-11.2,5.4c-0.5,0.6-1.1,0.9-1.8,0.9h-10.2 c-1.3,0-2.4-1.1-2.4-2.4v-34.4c0-1.3,1.1-2.4,2.4-2.4h49v-6.7c-4-3.6-6.2-8.7-6.2-14.1c0-10.6,8.6-19.1,19.1-19.1 c10.6,0,19.1,8.6,19.1,19.1c0,5.4-2.3,10.5-6.3,14.1v6.7h42.6c1.3,0,2.4,1.1,2.4,2.4v38.7h6.7c3.6-4,8.7-6.2,14.1-6.2 c10.6,0,19.1,8.6,19.1,19.1c0,10.6-8.6,19.1-19.1,19.1c-5.4,0-10.5-2.3-14.1-6.2h-6.7v52.9 C1218.1,537.1,1217.1,538.2,1215.8,538.2z M1163.8,533.4h49.5v-52.9c0-1.3,1.1-2.4,2.4-2.4h10.1c0.7,0,1.4,0.3,1.8,0.9 c2.7,3.4,6.8,5.4,11.2,5.4c7.9,0,14.4-6.5,14.4-14.4c0-7.9-6.5-14.4-14.4-14.4c-4.4,0-8.5,2-11.2,5.4c-0.5,0.6-1.1,0.9-1.8,0.9 h-10.1c-1.3,0-2.4-1.1-2.4-2.4v-38.7h-42.6c-1.3,0-2.4-1.1-2.4-2.4v-10.1c0-0.7,0.3-1.4,0.9-1.8c3.4-2.7,5.4-6.8,5.4-11.2 c0-7.9-6.5-14.4-14.4-14.4s-14.4,6.5-14.4,14.4c0,4.4,2,8.4,5.4,11.2c0.6,0.4,0.9,1.1,0.9,1.8v10.1c0,1.3-1.1,2.4-2.4,2.4h-49 v29.6h6.7c3.6-4,8.7-6.2,14.1-6.2c10.6,0,19.1,8.6,19.1,19.1c0,10.6-8.6,19.1-19.1,19.1c-5.4,0-10.5-2.3-14.1-6.3h-6.7v57.3h37.4 v-6.7c-4-3.6-6.2-8.7-6.2-14.1c0-10.5,8.6-19.1,19.1-19.1s19.1,8.6,19.1,19.1c0,5.4-2.3,10.5-6.2,14.1V533.4z"></path></g></g></svg>