<?xml version="1.0" standalone="no"?>
<!DOCTYPE svg PUBLIC "-//W3C//DTD SVG 20010904//EN"
 "http://www.w3.org/TR/2001/REC-SVG-20010904/DTD/svg10.dtd">
<svg version="1.0" xmlns="http://www.w3.org/2000/svg"
 width="260.000000pt" height="260.000000pt" viewBox="0 0 260.000000 260.000000"
 preserveAspectRatio="xMidYMid meet">
<metadata>
Created by potrace 1.11, written by Peter Selinger 2001-2013
</metadata>
<g transform="translate(0.000000,260.000000) scale(0.100000,-0.100000)"
fill="#000000" stroke="none">
<path d="M1225 2502 c-38 -2 -126 -15 -190 -27 -61 -11 -192 -59 -269 -97
-158 -78 -314 -203 -407 -325 -24 -32 -47 -59 -51 -61 -5 -2 -8 -8 -8 -12 0
-5 -13 -28 -29 -52 -38 -56 -95 -176 -121 -256 -38 -115 -52 -205 -55 -347 -5
-175 16 -308 69 -449 150 -399 481 -683 898 -772 115 -25 361 -25 478 -1 329
70 616 268 787 542 69 111 144 289 158 379 5 29 8 46 20 106 10 48 7 275 -4
340 -18 107 -20 114 -46 196 -71 220 -218 432 -400 575 -239 189 -532 281
-830 261z"/>
</g>
</svg>
